<svg width="270" height="33" viewBox="0 0 270 33" fill="none" xmlns="http://www.w3.org/2000/svg">
<path d="M94.4126 29.2013C91.4881 29.2013 89.0997 28.8601 87.15 28.1777C85.2491 27.4953 83.7869 26.5692 82.8608 25.3994C81.9347 24.2296 81.3985 22.9623 81.3498 21.5488H86.8089C86.8576 22.2799 87.1013 22.9623 87.5887 23.4985C88.0762 24.0834 88.856 24.5221 89.9771 24.8145C91.0981 25.1557 92.5604 25.3019 94.4126 25.3019C96.7034 25.3019 98.4094 25.0582 99.4817 24.6195C100.554 24.1809 101.09 23.4985 101.09 22.5724V22.5236C101.09 21.9875 100.944 21.5976 100.7 21.2564C100.457 20.9639 99.8716 20.6715 98.9943 20.4278C98.1169 20.1841 96.8009 19.9403 94.9975 19.7454C94.8025 19.6966 94.5588 19.6966 94.3151 19.6479C94.0714 19.5991 93.8277 19.5991 93.584 19.5991C93.4377 19.5991 93.2915 19.5504 93.194 19.5504C93.0478 19.5504 92.9503 19.5504 92.8041 19.5017C89.9771 19.2092 87.7837 18.7218 86.2727 18.0882C84.713 17.4545 83.6894 16.7234 83.1045 15.846C82.5196 14.9687 82.2759 13.9451 82.2759 12.7266V12.7753C82.2759 11.6055 82.6658 10.5332 83.4457 9.6071C84.2256 8.68101 85.4441 7.94989 87.1988 7.36499C88.9047 6.78009 91.1469 6.53638 93.8764 6.53638C97.8732 6.53638 100.895 7.21877 102.942 8.58353C104.99 9.9483 106.111 11.8005 106.354 14.1401H101.09C100.895 13.019 100.31 12.0929 99.238 11.4105C98.1657 10.7282 96.5085 10.387 94.1689 10.387C92.7066 10.387 91.5368 10.4845 90.6107 10.7282C89.7334 10.9231 89.051 11.2156 88.661 11.6055C88.2711 11.9954 88.0762 12.4341 88.0762 12.9215C88.0762 13.3602 88.1736 13.7501 88.4173 14.0913C88.6123 14.4325 89.0997 14.6762 89.8308 14.9687C90.562 15.2124 91.6343 15.4561 93.0965 15.6023C93.2915 15.6023 93.4865 15.6511 93.6814 15.6511C93.8764 15.6998 94.0714 15.6998 94.2663 15.6998C97.8245 16.041 100.554 16.5284 102.406 17.1621C104.258 17.7957 105.477 18.5756 106.062 19.4042C106.647 20.2328 106.939 21.2076 106.939 22.3774C106.939 23.8884 106.452 25.1557 105.526 26.1305C104.6 27.1541 103.186 27.8852 101.383 28.3727C99.3355 28.9576 97.0934 29.2013 94.4126 29.2013Z" fill="#00BCD4"/>
<path d="M110.985 28.6652V7.12134H116.59V28.6652H110.985Z" fill="#00BCD4"/>
<path d="M122.683 28.6652V7.12134H128.288V24.6683H143.837V28.7139H122.683V28.6652Z" fill="#00BCD4"/>
<path d="M147.833 28.6652V7.12134H153.439V15.6999H158.995L166.063 7.12134H172.789L163.723 17.6495V17.7958L174.008 28.7139H167.33L158.995 19.7454H153.487V28.7139H147.833V28.6652Z" fill="#00BCD4"/>
<path d="M182.976 28.6652L174.544 7.12134H180.49L186.437 23.7422L186.632 24.4734H186.681L186.924 23.7422L192.919 7.17007H198.671L204.666 23.7422L204.91 24.4734H204.959L205.154 23.7422L211.1 7.12134H217.047L208.614 28.6652H201.693L195.99 12.4829L195.844 11.9955H195.795L195.649 12.4829L189.946 28.6164H182.976V28.6652Z" fill="white"/>
<path d="M214.902 28.6652L226.405 7.12134H233.911L245.512 28.6652H239.224L230.45 10.9232L230.207 10.4358H230.158L229.963 10.9232L221.19 28.6652H214.902ZM221.531 23.9372L222.262 20.2329H237.762L238.737 23.9372H221.531Z" fill="white"/>
<path d="M252.287 28.6652V22.28L240.15 7.12134H247.071L254.724 17.4058L255.065 17.9907L255.455 17.4058L263.059 7.12134H269.98L257.892 22.28V28.6652H252.287Z" fill="white"/>
<path d="M35.8251 2.29572L33.6317 7.46234C33.4368 7.90101 33.0468 8.19346 32.5594 8.19346H8.67601C8.04237 8.19346 7.50621 7.65731 7.50621 7.02367V1.85704C7.50621 1.2234 8.04237 0.687246 8.67601 0.687246H34.7528C35.5814 0.638504 36.1663 1.51585 35.8251 2.29572Z" fill="white"/>
<path d="M63.7054 3.22181V31.1508C63.7054 32.1744 62.5356 32.7105 61.7557 32.0281L46.2071 18.3317C45.7684 17.9418 45.086 17.9418 44.6474 18.3317L36.5075 25.4968L29.0988 32.0281C28.8551 32.2231 28.9038 32.3206 28.3189 32.3206H1.7547C0.926091 32.3206 0.341192 31.4432 0.682384 30.7121L2.87576 25.5455C3.07073 25.1068 3.46066 24.8144 3.94807 24.8144H27.8315C28.4651 24.8144 29.0013 24.2782 29.0013 23.6446V20.8176C29.0013 20.0377 28.3677 19.404 27.5878 19.404H3.5094C1.55973 19.404 0 17.8443 0 15.8947V13.3113C0 12.5315 0.633642 11.8978 1.41351 11.8978H32.9981C34.9478 11.8978 36.5075 13.4576 36.5075 15.4072C36.5562 15.4072 36.5563 15.3585 36.605 15.3585L44.6474 8.2422C45.086 7.85227 45.7684 7.85227 46.2071 8.2422L54.2007 15.3585C54.9806 16.0409 56.1504 15.5047 56.1504 14.4811V3.46552C56.1504 2.68566 56.784 2.052 57.5639 2.052H62.4868C63.1692 2.052 63.7054 2.58817 63.7054 3.22181Z" fill="white"/>
</svg>
