<svg width="273" height="32" viewBox="0 0 273 32" fill="none" xmlns="http://www.w3.org/2000/svg">
<path d="M95.4628 28.833C92.5058 28.833 90.0908 28.4881 88.1195 27.7981C86.1974 27.1081 84.7189 26.1717 83.7825 24.9889C82.8461 23.8061 82.304 22.5247 82.2547 21.0954H87.7745C87.8238 21.8347 88.0702 22.5247 88.563 23.0668C89.0559 23.6582 89.8444 24.1018 90.9779 24.3975C92.1115 24.7425 93.59 24.8903 95.4628 24.8903C97.7791 24.8903 99.5041 24.6439 100.588 24.2003C101.673 23.7568 102.215 23.0668 102.215 22.1304V22.0811C102.215 21.539 102.067 21.1447 101.82 20.7998C101.574 20.5041 100.983 20.2083 100.095 19.9619C99.2084 19.7155 97.8777 19.4691 96.0542 19.272C95.857 19.2227 95.6106 19.2227 95.3642 19.1734C95.1178 19.1241 94.8714 19.1241 94.6249 19.1241C94.4771 19.1241 94.3293 19.0748 94.2307 19.0748C94.0828 19.0748 93.9843 19.0748 93.8364 19.0255C90.9779 18.7298 88.7602 18.237 87.2324 17.5963C85.6553 16.9556 84.6203 16.2164 84.0289 15.3292C83.4375 14.4421 83.1911 13.4072 83.1911 12.1751V12.2243C83.1911 11.0415 83.5854 9.95729 84.3739 9.02089C85.1625 8.0845 86.3945 7.34525 88.1688 6.75385C89.8937 6.16244 92.1608 5.91602 94.9207 5.91602C98.9619 5.91602 102.018 6.606 104.087 7.98595C106.157 9.36589 107.291 11.2387 107.537 13.6043H102.215C102.018 12.4708 101.426 11.5344 100.342 10.8444C99.2576 10.1544 97.582 9.80944 95.2164 9.80944C93.7378 9.80944 92.555 9.90801 91.6186 10.1544C90.7315 10.3516 90.0415 10.6473 89.6473 11.0415C89.253 11.4358 89.0559 11.8794 89.0559 12.3722C89.0559 12.8158 89.1544 13.21 89.4009 13.555C89.598 13.9 90.0908 14.1464 90.8301 14.4421C91.5693 14.6885 92.6536 14.935 94.1321 15.0828C94.3292 15.0828 94.5264 15.1321 94.7235 15.1321C94.9207 15.1814 95.1178 15.1814 95.3149 15.1814C98.9126 15.5264 101.673 16.0192 103.545 16.6599C105.418 17.3006 106.65 18.0891 107.242 18.927C107.833 19.7648 108.129 20.7505 108.129 21.9333C108.129 23.4611 107.636 24.7425 106.699 25.7281C105.763 26.7631 104.334 27.5024 102.51 27.9952C100.44 28.5866 98.1734 28.833 95.4628 28.833Z" fill="#00BCD4"/>
<path d="M112.219 28.2908V6.50732H117.887V28.2908H112.219Z" fill="#00BCD4"/>
<path d="M124.047 28.2908V6.50732H129.715V24.2495H145.437V28.3401H124.047V28.2908Z" fill="#00BCD4"/>
<path d="M149.478 28.2908V6.50732H155.146V15.1813H160.764L167.91 6.50732H174.711L165.544 17.1526V17.3005L175.943 28.3401H169.191L160.764 19.2718H155.195V28.3401H149.478V28.2908Z" fill="#00BCD4"/>
<path d="M185.012 28.2908L176.485 6.50732H182.498L188.511 23.3131L188.708 24.0524H188.757L189.004 23.3131L195.065 6.5566H200.881L206.943 23.3131L207.189 24.0524H207.239L207.436 23.3131L213.448 6.50732H219.461L210.935 28.2908H203.937L198.17 11.9286L198.022 11.4357H197.973L197.825 11.9286L192.059 28.2415H185.012V28.2908Z" fill="black"/>
<path d="M217.292 28.2908L228.923 6.50732H236.513L248.243 28.2908H241.885L233.014 10.3515L232.768 9.85862H232.718L232.521 10.3515L223.65 28.2908H217.292ZM223.995 23.5103L224.734 19.7647H240.407L241.392 23.5103H223.995Z" fill="black"/>
<path d="M255.093 28.2908V21.8346L242.821 6.50732H249.82L257.557 16.9062L257.902 17.4976L258.297 16.9062L265.985 6.50732H272.983L260.761 21.8346V28.2908H255.093Z" fill="black"/>
<path d="M36.2236 1.62833L34.0059 6.85242C33.8087 7.29598 33.4145 7.59168 32.9216 7.59168H8.77252C8.13183 7.59168 7.58971 7.04956 7.58971 6.40887V1.18478C7.58971 0.544085 8.13183 0.00196471 8.77252 0.00196471H35.1394C35.9772 -0.0473192 36.5686 0.839785 36.2236 1.62833Z" fill="black"/>
<path d="M64.414 2.56466V30.8043C64.414 31.8393 63.2312 32.3814 62.4426 31.6914L46.7211 17.8427C46.2775 17.4484 45.5876 17.4484 45.144 17.8427L36.9136 25.0874L29.4225 31.6914C29.176 31.8886 29.2253 31.9872 28.6339 31.9872H1.77422C0.936393 31.9872 0.344988 31.1 0.689975 30.3608L2.90775 25.1367C3.10488 24.6931 3.49915 24.3974 3.99199 24.3974H28.1411C28.7818 24.3974 29.3239 23.8553 29.3239 23.2146V20.3561C29.3239 19.5676 28.6832 18.9269 27.8947 18.9269H3.54844C1.57708 18.9269 0 17.3498 0 15.3785V12.7664C0 11.9779 0.640691 11.3372 1.42923 11.3372H33.3652C35.3365 11.3372 36.9136 12.9143 36.9136 14.8856C36.9629 14.8856 36.9629 14.8363 37.0122 14.8363L45.144 7.6409C45.5876 7.24663 46.2775 7.24663 46.7211 7.6409L54.8036 14.8363C55.5922 15.5263 56.775 14.9842 56.775 13.9492V2.81108C56.775 2.02254 57.4157 1.38184 58.2042 1.38184H63.1819C63.8719 1.38184 64.414 1.92397 64.414 2.56466Z" fill="black"/>
</svg>
